<svg width="260" height="196" viewBox="0 0 260 196" fill="none" xmlns="http://www.w3.org/2000/svg">
<path d="M2 34V2H34" stroke="white" stroke-width="4"/>
<path d="M226 2L258 2L258 34" stroke="white" stroke-width="4"/>
<path d="M34 194L2 194L2 162" stroke="white" stroke-width="4"/>
<path d="M258 162L258 194L226 194" stroke="white" stroke-width="4"/>
<rect x="30.5" y="70.5" width="201" height="58" rx="8.5" stroke="white" stroke-width="3"/>
<rect x="97" y="89" width="75" height="21" rx="4" stroke="white" stroke-width="2"/>
<rect x="110.5" y="93.5" width="43" height="12" rx="2.5" stroke="white"/>
<rect x="41" y="89" width="31" height="21" rx="10.5" stroke="white" stroke-width="2"/>
<rect x="46.75" y="93.75" width="19.5" height="11.5" rx="5.75" fill="#2E12C4" stroke="white" stroke-width="1.5"/>
<path d="M209.936 82.9178C209.936 82.5445 210.021 82.2138 210.192 81.9258C210.363 81.6378 210.603 81.4138 210.912 81.2538C211.227 81.0992 211.589 81.0218 212 81.0218H213.6C214.011 81.0218 214.371 81.1018 214.68 81.2618C214.995 81.4218 215.237 81.6458 215.408 81.9338C215.579 82.2272 215.664 82.5658 215.664 82.9498V83.7978C215.664 84.1605 215.584 84.4805 215.424 84.7578C215.269 85.0405 215.051 85.2565 214.768 85.4058C214.485 85.5605 214.16 85.6378 213.792 85.6378V84.8938C214.149 84.8938 214.437 84.7925 214.656 84.5898C214.875 84.3925 214.984 84.1285 214.984 83.7978V82.9498C214.984 82.6032 214.856 82.3205 214.6 82.1018C214.344 81.8885 214.005 81.7818 213.584 81.7818H212.016C211.595 81.7818 211.256 81.8858 211 82.0938C210.744 82.3018 210.616 82.5765 210.616 82.9178V83.7818C210.616 84.1232 210.736 84.3952 210.976 84.5978C211.221 84.8058 211.541 84.9098 211.936 84.9098V85.6538C211.541 85.6538 211.192 85.5765 210.888 85.4218C210.584 85.2672 210.349 85.0485 210.184 84.7658C210.019 84.4832 209.936 84.1552 209.936 83.7818V82.9178ZM209.936 88.3334C209.936 87.9441 210.021 87.6001 210.192 87.3014C210.363 87.0081 210.603 86.7787 210.912 86.6134C211.221 86.4534 211.581 86.3734 211.992 86.3734H213.608C214.019 86.3734 214.379 86.4534 214.688 86.6134C214.997 86.7787 215.237 87.0107 215.408 87.3094C215.579 87.6081 215.664 87.9521 215.664 88.3414V89.1894C215.664 89.5787 215.579 89.9201 215.408 90.2134C215.237 90.5121 214.997 90.7414 214.688 90.9014C214.379 91.0667 214.019 91.1494 213.608 91.1494H211.992C211.581 91.1494 211.221 91.0667 210.912 90.9014C210.603 90.7414 210.363 90.5121 210.192 90.2134C210.021 89.9147 209.936 89.5734 209.936 89.1894V88.3334ZM210.616 89.1734C210.616 89.5361 210.741 89.8294 210.992 90.0534C211.248 90.2774 211.587 90.3894 212.008 90.3894H213.592C214.013 90.3894 214.349 90.2774 214.6 90.0534C214.856 89.8294 214.984 89.5361 214.984 89.1734V88.3494C214.984 87.9867 214.856 87.6934 214.6 87.4694C214.349 87.2454 214.013 87.1334 213.592 87.1334H212.008C211.587 87.1334 211.248 87.2427 210.992 87.4614C210.741 87.6854 210.616 87.9787 210.616 88.3414V89.1734ZM210 93.9778C210 93.7431 210.139 93.5751 210.416 93.4738L215.6 91.5538V92.3458L210.944 93.9938V94.0098L215.6 95.6658V96.4578L210 94.3538V93.9778ZM215.6 97.254V98.014H210V97.254H215.6ZM210 99.8836C210 99.6969 210.053 99.5476 210.16 99.4356C210.267 99.3289 210.413 99.2756 210.6 99.2756H215.6V101.716C215.6 102.121 215.523 102.476 215.368 102.78C215.213 103.089 214.992 103.326 214.704 103.492C214.421 103.662 214.096 103.748 213.728 103.748H212.032C211.365 103.748 210.859 103.577 210.512 103.236C210.171 102.9 210 102.404 210 101.748V99.8836ZM210.68 101.724C210.68 102.14 210.795 102.454 211.024 102.668C211.253 102.881 211.595 102.988 212.048 102.988H213.712C214.075 102.988 214.365 102.868 214.584 102.628C214.808 102.393 214.92 102.081 214.92 101.692V100.036H210.68V101.724ZM212.376 106.693V108.981H211.72V106.693H212.376ZM214.776 113.055L214.128 111.767H214.84L215.6 113.199V113.815H210V113.055H214.776ZM209.936 116.553C209.936 116.062 210.072 115.67 210.344 115.377C210.621 115.089 210.987 114.945 211.44 114.945V115.697C211.189 115.697 210.989 115.774 210.84 115.929C210.691 116.084 210.616 116.292 210.616 116.553V117.241C210.616 117.524 210.712 117.748 210.904 117.913C211.096 118.084 211.357 118.169 211.688 118.169H212.552C212.381 118.02 212.248 117.841 212.152 117.633C212.056 117.425 212.008 117.209 212.008 116.985V116.449C212.008 116.118 212.077 115.828 212.216 115.577C212.355 115.326 212.547 115.132 212.792 114.993C213.043 114.86 213.331 114.793 213.656 114.793H213.976C214.307 114.793 214.6 114.868 214.856 115.017C215.112 115.172 215.309 115.388 215.448 115.665C215.592 115.942 215.664 116.262 215.664 116.625V117.185C215.664 117.532 215.595 117.836 215.456 118.097C215.317 118.364 215.12 118.569 214.864 118.713C214.613 118.857 214.323 118.929 213.992 118.929H211.688C211.149 118.929 210.723 118.777 210.408 118.473C210.093 118.169 209.936 117.758 209.936 117.241V116.553ZM212.672 117.001C212.672 117.278 212.755 117.526 212.92 117.745C213.085 117.964 213.299 118.105 213.56 118.169H214.056C214.339 118.169 214.565 118.078 214.736 117.897C214.912 117.716 215 117.478 215 117.185V116.625C215 116.305 214.907 116.046 214.72 115.849C214.533 115.652 214.285 115.553 213.976 115.553H213.656C213.357 115.553 213.117 115.633 212.936 115.793C212.76 115.958 212.672 116.174 212.672 116.441V117.001Z" fill="white"/>
<path d="M137.936 116.652C137.936 116.279 138.021 115.948 138.192 115.66C138.363 115.372 138.603 115.148 138.912 114.988C139.227 114.834 139.589 114.756 140 114.756H141.6C142.011 114.756 142.371 114.836 142.68 114.996C142.995 115.156 143.237 115.38 143.408 115.668C143.579 115.962 143.664 116.3 143.664 116.684V117.532C143.664 117.895 143.584 118.215 143.424 118.492C143.269 118.775 143.051 118.991 142.768 119.14C142.485 119.295 142.16 119.372 141.792 119.372V118.628C142.149 118.628 142.437 118.527 142.656 118.324C142.875 118.127 142.984 117.863 142.984 117.532V116.684C142.984 116.338 142.856 116.055 142.6 115.836C142.344 115.623 142.005 115.516 141.584 115.516H140.016C139.595 115.516 139.256 115.62 139 115.828C138.744 116.036 138.616 116.311 138.616 116.652V117.516C138.616 117.858 138.736 118.13 138.976 118.332C139.221 118.54 139.541 118.644 139.936 118.644V119.388C139.541 119.388 139.192 119.311 138.888 119.156C138.584 119.002 138.349 118.783 138.184 118.5C138.019 118.218 137.936 117.89 137.936 117.516V116.652Z" fill="white"/>
<path d="M126.936 116.62V114.844H127.6V119.156H126.936V117.38H122V116.62H126.936Z" fill="white"/>
</svg>
